<mxfile host="app.diagrams.net" agent="Mozilla/5.0 (X11; Linux x86_64; rv:143.0) Gecko/20100101 Firefox/143.0" version="28.2.5">
  <diagram id="C5RBs43oDa-KdzZeNtuy" name="Page-1">
    <mxGraphModel dx="1426" dy="912" grid="1" gridSize="10" guides="1" tooltips="1" connect="1" arrows="1" fold="1" page="1" pageScale="1" pageWidth="827" pageHeight="1169" math="0" shadow="0">
      <root>
        <mxCell id="WIyWlLk6GJQsqaUBKTNV-0" />
        <mxCell id="WIyWlLk6GJQsqaUBKTNV-1" parent="WIyWlLk6GJQsqaUBKTNV-0" />
        <mxCell id="vSL9ewm9AfMCym9DL8Tn-10" style="edgeStyle=orthogonalEdgeStyle;rounded=0;orthogonalLoop=1;jettySize=auto;html=1;entryX=0.5;entryY=0;entryDx=0;entryDy=0;endArrow=none;endFill=0;startArrow=diamondThin;startFill=1;" edge="1" parent="WIyWlLk6GJQsqaUBKTNV-1" source="vSL9ewm9AfMCym9DL8Tn-8" target="vSL9ewm9AfMCym9DL8Tn-9">
          <mxGeometry relative="1" as="geometry" />
        </mxCell>
        <mxCell id="vSL9ewm9AfMCym9DL8Tn-11" value="1" style="edgeLabel;html=1;align=center;verticalAlign=middle;resizable=0;points=[];" vertex="1" connectable="0" parent="vSL9ewm9AfMCym9DL8Tn-10">
          <mxGeometry x="0.66" y="4" relative="1" as="geometry">
            <mxPoint as="offset" />
          </mxGeometry>
        </mxCell>
        <mxCell id="vSL9ewm9AfMCym9DL8Tn-8" value="timer" style="rounded=0;whiteSpace=wrap;html=1;" vertex="1" parent="WIyWlLk6GJQsqaUBKTNV-1">
          <mxGeometry x="354" y="260" width="120" height="90" as="geometry" />
        </mxCell>
        <mxCell id="vSL9ewm9AfMCym9DL8Tn-9" value="monitor" style="rounded=0;whiteSpace=wrap;html=1;" vertex="1" parent="WIyWlLk6GJQsqaUBKTNV-1">
          <mxGeometry x="354" y="450" width="120" height="90" as="geometry" />
        </mxCell>
        <mxCell id="vSL9ewm9AfMCym9DL8Tn-13" style="edgeStyle=orthogonalEdgeStyle;rounded=0;orthogonalLoop=1;jettySize=auto;html=1;entryX=0.5;entryY=0;entryDx=0;entryDy=0;" edge="1" parent="WIyWlLk6GJQsqaUBKTNV-1" source="vSL9ewm9AfMCym9DL8Tn-12" target="vSL9ewm9AfMCym9DL8Tn-8">
          <mxGeometry relative="1" as="geometry" />
        </mxCell>
        <mxCell id="vSL9ewm9AfMCym9DL8Tn-12" value="main" style="rounded=0;whiteSpace=wrap;html=1;" vertex="1" parent="WIyWlLk6GJQsqaUBKTNV-1">
          <mxGeometry x="100" y="110" width="120" height="80" as="geometry" />
        </mxCell>
        <mxCell id="vSL9ewm9AfMCym9DL8Tn-24" value="" style="shape=image;verticalLabelPosition=bottom;labelBackgroundColor=default;verticalAlign=top;aspect=fixed;imageAspect=0;image=data:image/png,iVBORw0KGgoAAAANSUhEUgAABFMAAAGRCAIAAAAmXmveAAAACXBIWXMAAA7EAAAOxAGVKw4bAAAgAElEQVR4nOzdaVwTV/s38JMYdlQKshW0rYKyCRQlILLZCogLdUFwKyIqVYh1q7e71CIuZSkqWkSkBau3StVasLjvRQ0t7ojYSgVrVapSQdaQPC/O07nzTxAjSwLD7/vCz8xkrjnnSgBz5Zw54bx48YL8SywWE0K4XC55czU1NYQQTU3NZsS2pF1VxSJf5bSLfJUTi3yV0y7yVU4s8lVOu8hXObHIVzntIl/lxKo83+YEAwAAAAAAdCyofAAAAAAAgP1Q+QAAAAAAAPuh8gEAAAAAAPbjlJeXt8qFRCIRIYTH47XK1do/5MtuyJfdkC+7IV92Q77shnzZTeX5YswHAAAAAADYjye9vFtHXB0PsYhFLGIRi1jEIhaxiEUsYl8bizEfAAAAAABgP1Q+AAAAAADAfqh8AAAAAACA/VD5AAAAAAAA+6HyAQAAAAAA9kPlAwAAAAAA7IfKBwAAAAAA2A+VDwAAAAAAsB8qHwAAAAAAYD9UPgAAAAAAwH6ofAAAAAAAgP1Q+QAAAAAAAPuh8gEAAAAAAPZD5QMAAAAAAOyHygcAAAAAANgPlQ8AAAAAALAfKh8AAAAAAGA/Xk1NDbPD5XIJIWKxuBkXqq+vb3YnWtKuqmKRr3LaRb7KiUW+ymkX+SonFvkqp13kq5xY5KucdpGvcmJVni/GfAAAAAAAgP14mpqazA6tomhV1DzSV1NcS9pVVSyFfNu6XeSrnFgK+bZ1u8hXObEU8m3rdpGvcmIp5NvW7SJf5cRSKswXYz4AAAAAAMB+qHwAAAAAAID9UPkAAAAAAAD7ofIBAAAAAAD2Q+UDAAAAAADsh8oHAAAAAADYD5UPAAAAAACwHyofAAAAAABgP1Q+AAAAAADAfqh8AAAAAACA/VD5AAAAAAAA+6HyAQAAAAAA9kPlAwAAAAAA7IfKBwAAAAAA2A+VDwAAAAAAsB8qHwAAAAAAYD9UPgAAAAAAwH6c8vLyVrmQSCQihPB4vFa5WvuHfNkN+bIb8mU35MtuyJfdkC+7qTxfjPkAAAAAAAD78bjc/xU/YrGYECJ9RHGIRSxiEYtYxCIWsYhFLGIR225jMeYDAAAAAADsh8oHAAAAAADYD5UPAAAAAACwHyofAAAAAABgP1Q+AAAAAADAfqh8AAAAAACA/VD5AAAAAAAA+6HyAQAAAAAA9kPlAwAAAAAA7IfKBwAAAAAA2A+VDwAAAAAAsB8qHwAAAAAAYD9UPgAAAAAAwH6ofAAAAAAAgP1Q+QAAAAAAAPuh8gEAAAAAAPZD5QMAALKSkpKsrKxCQkKEQqGq+wIAANA6OOXl5a1yIZFIRAjh8XitcrX2D/myG/JlN+T7WjY2Nsw2n8+PjIx0dnZu/Z4RQggZM2bM+PHjJ02adOnSpejo6MOHD7/pFU6ePLly5crc3Fy6i9eX3ZAvuyFfdlN5vhjzAQCA/4OO89CCh+5OnTpVCYM/PXv2DAgIaOtWAACg0+Jxuf8rfsRiMSFE+ojiENsZYrdu3ZqUlESP8Pl8+dPkD/L5fLFYzOFwOBxOE6e1XZ87Z6z8m9RG37YyB0UiEf0ApoXvbqVfWWa70YPyfX5TiG27WObMOXPmREZGTp06NS8vLzQ0NCMjQ/FfXsXbpX8fuFxuz549Z8+e3Yw+0z8vzMkd5XlGLGIRi1jEKjm2swyuQatr+p10CzHvriQSiXTJ9KrTGiWRSPh8fhPhilyktSj4zNAqMS8vT/HrtKvbMKQ786qO0Sec/jtw4EAOh+Pi4qKc7oGC6KvDvILp6en0U4+QkBCBQCAQCFp4/RcvXkRFRZ0+fbpbt26TJ09WU1Ojx0+cOLFixYpLly4RQn799dfY2NiioiItLa3+/ftv2rRJU1Nz9OjR06dPP3z4sFAoNDIymjVr1ujRo2Uu/uzZszVr1uTn55eXl/fr12/16tVWVlZjx4794IMPmJ5nZ2d//vnnubm56urqLcwFAAA6EFQ+8Mb4fH5GRoaClQ89IlPAvPbNuoLv5l972pYtWxS5Dvs0OvjWxGkikUgkEmlqajajDnzVWBOzLbMh/a98Z/h8vnRpBO0ErRmSkpLoqG8Li5+YmJi7d+/u3r1bW1t7y5Ytt2/fli9g5s+fP3369JSUlKdPn966dUtTU5OJXb16dVRU1NmzZ5cvX66vr+/p6Skd2LVrVycnp9mzZ/fo0WP9+vVffPHF7t27AwICMjMzmW4fP3586NChKHsAADobVD7wBqTf9Cg42400a3SSeVsskUgkEsmrYpuufCQSiVAofO2Yj3LGTBR/Hy+RSJoYA2mipGnJKHBNTQ0hhHlz2WxNTGxjMJUPUxXTMa5GK6Imps+JxWJUR21HIBDQOiciIoI5Qv4tflpS+VRVVWVnZ2/dupUuohAVFXXs2DGZcyQSSXV1NY/H09PT09PT69OnD/OQn5+fn58fIWTChAnnz5/fv3+/TOWjpqYWGBhICKFjRHPmzCGEjBgxIjY29s6dO/369aupqTl79uzmzZubnQIAAHRQqHxAUcnJyUTqI/k2peC7+aZ7IhaLIyMjlV8JqGoOa0chPaTD5Cs9LvSqoSEFa1RFfj6dnJxIk2vLNHER+fvWFKeqWLromYJr6Ug/80lJSZcvX6aNSj//LSl+Hjx40NDQwKwdp6ura2pqKnMOh8OJjY1dunTpjz/+GBoaOmzYsC5dutCHevfuzZxma2srXzU9evRo8+bNV65cqa6uFolEdXV1hBBDQ0MXF5effvqpX79+586d09LSGjRoUPP6D9BGpk2bNnr06I8++ogQcuXKleXLlz948MDd3T0hIUHVXevwRo8ePWHChAkTJii/3fHjx0+ePFnmeEVFhbOz848//ti3b983vab0rOA2pbSGlAyVDyiKVj4tn+IPIK/R5RCIYtPnZChSILWrm6PaOfm7zlrl4w/pEq7RWWfe3t6nTp364Ycf4uLi9uzZs337dvpJhEQiYc6pr6+X/5ggIiLCzMwsNTX17bffvnz58syZM+nxjz76KCkpaf78+cePH/f19e08a8hCRzF06FDmfXB0dPTAgQPT09PpEsDtWVVVFf0siXHz5k36i5menp6RkfHkyRMrK6slS5YMGDBARX3s8Pz9/bOysvBXq1XgSQSFKHPAB4DRvHXhXlvYiEQioVDYxP8ir51I2byxF1XFvnaMS5rM83z58mVCSF5eHn1OCgsLm9EBaWZmZlwu986dOz169CCE1NXV/fnnn42eqaWlNXny5ICAAG9vb6FQSGe1/fbbb8wJhYWF7733nnRIRUVFQUHBkiVL9PX1CSEPHjxgHvLx8YmKiiooKDh37hymukE7JD0yUFxcPH/+fENDQ/LvHIR2q6ysjMvlHjx4kPnrxOPxxGJxVlbW5s2b169fb2VldfTo0fDw8B9//NHMzOxV19m9e7euru7IkSOV1fEO4/79+8XFxaruBXug8gGFYMAHOpDX1uc1NTVOTk4dazajqu7jGjhwIG3XysqqGeHydHR0hg8fHhsbq6+vr6urm5aWVl9fL3OOWCzOyMjw8PAwNja+evVqbW3t22+/TR86cuSIu7v7gAEDzp8/f/bs2dTUVOlALS2trl273rhxw97evrS0NC0tjXlIW1t76NChycnJ6urqNCmAdoXOjHr//ffnzp1bXV1NhyuPHTtmZGQkfU54ePgPP/wgFAp79Ojxn//8R0dHZ/369aWlpf369Vu7di29KW7t2rXa2tpVVVUHDx7s0qXLpEmTxowZs2rVqvz8fCMjo8WLFw8dOrS1ul1WVmZoaNivXz+Z49nZ2cHBwbSh6dOn//rrr5mZmfPmzXvVdRwcHNavX799+/ZZs2Z9+OGH8iekpKQcP348MzOTEPLixYtBgwZNnDhxxYoVhJDz58/Pmzfv8uXL5eXl69ev//XXX58/f84s7Sh9EZFI9Mknn2hpaW3atInL5V69enXt2rV37twxNTWNjIwcMWKETKOLFi3S0NBYs2YN3U1MTLx582ZqampFRYWLi0t6evq6deuKi4stLS1XrFhhb28v3+2KiorIyMiLFy9qamoGBgYuWLCAeaiwsHD58uV37twxMjJauHChv7+/fHhBQcGUKVMIIXZ2doSQgwcPEkLU1NQOHTqUlJT0+PHjfv36xcTE0NHCtWvXdu/eXU9Pb9u2bb179/7222/LyspWr16dm5urpaU1fvz4OXPm0JnDWVlZ6enp9+7d09HRGTNmDNOrI0eOxMfHl5WV2dvbN/oqsACbbyeA1sJ8rSEGfACg5T7//PN+/fqFhoZOnjzZzMzMx8dH/pxLly5NmjTJ3d09Li4uKirKwsKCHg8LCztw4ICvr+/mzZujoqLc3Nyko3g83rp16zIzM318fBYsWLB69WrmBiFCSEBAwLFjx/z9/dl9Kx10aDY2NsePH1dXV09LSyssLOzVq5fMCdHR0RMmTMjOzvby8lqyZElcXNzq1auzsrK0tLTWrVvHnPbtt9/q6+v/8MMPixYt+vrrr6dNmzZ+/PicnBxfX9+lS5fW1tZKX3Pnzp2u/9cHH3xACPnuu+8aPS7t6dOn5eXlQ4YMcXV1nThx4tmzZ+nxly9fdu/enTmtb9++N27caCJxW1vbnTt3rlix4r///e+kSZN+/vlnmRMGDRpUUFDw8uVLQsj58+eNjIyYtn755RdnZ2cej9e1a1c6S/D06dPvvvvuF198IXORFStWvHz5Mi4ujsvlPnz4MCwsbNy4cadOnZo7d+7SpUuvXr3aRA9liMXimJiYqKioH3/80draetq0aWVlZfKnpaWljRo16ujRo9HR0WlpaRcuXGAeSk1NXbFixeHDh4cPH75kyZLKykr5cBsbm2+++YYQcvPmzcLCQmtra0JIeXn58ePHU1JSDh8+rKent3LlSub8w4cPHz16NDY2duXKlQ0NDeHh4QYGBjk5Odu3bz9w4MCOHTvoaQYGBp999tmJEyc2btyYkZFB7wW9f//+woULg4ODc3JyQkNDU1JSFH82OhCM+cDr0SXdZs2apeqOAIBqMB9/tMrVdHV1N2zYIH986NCh9BNiLpe7detW0tgYV/fu3eX/P2YC6ba7uzv5d4zrypUrzGmOjo6EEPmPdQE6EF9fX1p+hIeH79q1a9q0aXQ66+TJk6Xf6JuYmMyaNUssFo8ZM2bbtm18Pn/48OGEkE8++WTHjh0PHz6Unik6duxYmQ8g6K/emDFjfH195Y9L8/b2TkxMfPvtt2tra3NycmbPnr1r1y4HBwcHB4fs7OyxY8caGBhcuXLlwIED8lWcPBcXFwcHh19++SUxMXHbtm1paWnMNF0bGxstLa38/HwPD48zZ86MHz8+JSXl/v3777zzjlAoHDZsGCFETU0tKCiIdpJZ2pHicDiJiYlXr17ds2cP/eOQmZnp5OQUHBxMCPH399+/f392drbMPUtNmzlzpoODAyFk+fLlx48fP3bsmPxiBr6+vrRvH374oaOj482bN+kfKELIjBkzHBwcampqwsPDU1NTi4qKFGy9vr5+xYoVJiYmYrE4LCyMuZuREPL06dN9+/bp6uoSQi5evFhSUpKZmcnj8YyNjadMmZKVlRUeHk4IcXNzo/MInJycbG1t79696+bmlpmZaW1tPWPGDEKIqanptWvX9u7dq/iz0VGg8oHXoGttOTk5vdGfAwCA9ubYsWO9evWi71QAOiimYtHT05Pe1dHRkR40kC5s9PT0mF1tbW1CCB05Yejo6Ojo6Mg0JBaLdXR0unbt2nR/NDQ0hgwZQrft7e0LCgp++OEHBweHiIiIhw8fent7q6urOzo6urm5VVRUSAcWFhaOGzeObu/bt8/W1pZu//bbbzk5OU+ePBkzZoz0nY1dunRxdnbOy8tzc3M7f/781KlT8/Pzz58/b2xsfPPmzc8//5wQ8vjx46+//jo/P//ly5fM0o7UuXPnTp48uXXrVvq8EUKKiory8vJcXV3pblVV1ZtOCWaeVR6PZ2lpef/+fflzmPFqQoiOjo70XVvMQzweT0NDQ/EbunR0dExMTJht+o18tES0s7OjZQ8hpKioqKamhim06urqmDIyKytrz549f/31FyHk6dOnXl5ehJDS0lLmVSCENGPduQ4BlQ+8BgZ8AKBVvsBUhV68ePHgwYMtW7Z88sknqu4LQIuoqalJ775q5RKZJRObXuBk586dMl/8ra2tfeLEie+++46OvkofP3XqVBOXsrCw+PvvvwkhOjo6GzduZG4ynDlzZv/+/aXP7N27d1ZWFt02MzOTSCRnz57NyMgoLi6ePHnyihUrtLS0ZC7u6up65MiRa9euqamp2draenp6njt3rk+fPrq6uvRtekRERK9evTIyMvT19aWXdiSEFBYWjhgxIiEhwc3NjVkocujQoYsWLaInSCQSDQ2NJlIjhDSx1F6jS00SuddLWrPXamvimkzZQxkbG+/evZvZpT08derUypUrN2/e7Orqqqam9vHHH9NHZRbRYetScuzMClpR685yAYAOh/mSpY77dyA0NLS4uHjs2LFBQUGq7gtAu9OS2W4y7t69+/777zO7tMZ48ODBxYsXP/30U+kz1dXVpb+eKzEx8cyZM9OnTx8yZAiPx2t0+MXV1TU+Pv7cuXPe3t4cDsfb2zshIcHKysrV1ZXD4VRUVNy+fTsqKkp+aUdCyMyZM0ePHj127Ni4uDi6LoKlpeXJkyeNjY3p2306+0uGzFBMaWmp9KO//fYb/WoykUj0+++/0+9ianX0OW+0e02zsLB48uQJh8MxNjaWPn7x4sWBAwcOHjyY7jJPlLm5eX5+PnMaWxeUQ+UDTenob3cAoOXoV/q0h78DP/zwQ/MCDxw40Lo9AWCTlsx2S09PNzAwsLGx4XA4+/fvv3nzZkxMDCFEJBI9ffpUS0vrxo0b69atGz16tMyYj4zJkyfTld+amPTVt29fXV3dQ4cO0Xv6e/XqZWRkdOjQoYiICPLv0o7Xrl1zdHSUWdqR0tTU/PLLLydMmODp6enp6Tl+/PidO3dGRUVNmTJFTU3t1q1bvXr1klmfzdra+uuvv/7rr79MTU0vXbp0+vRp6b+E27Zte/fdd42Njbdt29bQ0NDoYi0tZ2JiwuFwfvrpJy8vrzeaj+fi4mJhYTFv3rzFixcbGBjcv3+/qqrK19fX1NT01KlTlZWV2traKSkpzMIMgYGB6enp6enpfn5+9+7do8vosQ/Wt4GmdPQpLgDQQnl5eXQaDP4OAIC8Hj16pKSkjBs3bty4cQUFBTt37uzZsychpKqqasSIER4eHjExMQEBAfQ+nCbQLy9qGofDcXFxefbsGbOoo5eX1+PHj+m9Ojweb+3atXv27PH09JRf2pGys7OLiIhYtmzZs2fPzM3N09PT//jjj6CgoPHjx3/33Xfys8iCgoK8vLwCAgLc3d0zMjIiIyOlH505c+bnn3/u6+t75cqV5ORkOtbU6gwNDefOnRsbG+vj43Pv3j3FA3k83o4dO8zMzMLDw0eNGrV+/Xr6FQITJ07s37//iBEjfHx8Xr58GRoaSs/v3bv35s2bv//+e39//+Tk5FWrVrVFOirHefHiBbOjqu+L6Gzfj9GB8qUL4RcWFnaSfBnIVzntIl/lxLYk35CQEKFQyOfzMzIy3jS2I+bb2V5f5Nv+Y5Gvctp9o9iKigpnZ+esrCxLS8sWttsh8m3FWJXni9lu8EqY6gbQyTF3+GDABwBAhkQiad0LhoWFXb9+XfpIeHg4XYcaWgsqH3glOtUNADot+kcgMjISn4AAALQ1+XuToNXx5BeLaMbyEaQFS0+0sF1VxXaefCMiIsRicefJl0K+ymlXVbHIVxF5eXl0wCcyMrIz5NvydlUVi3yV066qYpGvctp9o1h6mkQikT6fxfm2YqzK88WYD7wSZrsBdGbMgI+qOwIA0L507dq1oKBA1b2A5uBJ3yfUEe+UQmxbx0pX5x2lz4hFLGJbGJuUlJSXl8fn82nl0yH6jFjEIhaxiEVs07FY1RoahwEfgE5LKBRiRXsAAGAfVD4AAPA/QqEwJCSEECIQCPDZBwAAsAkqHwAA+B862sPn8zHgAwAALIPKBxqH2W4AnQ0d7Wn295YCAAC0c1jbDQAASFJSEjPag7IHAABYCWM+0DiM+QB0HkzZIxAIUPYAAABbYcwHAKBTozPcCCECgQD39gAAAIuh8gEA6NTo0C6WNAAAANZD5QMA0Kmh4AEAgE4C9/kAAAAAAAD7ofIBAAAAAAD2Q+UDAAAAAADsh8oHAAAAAADYD5UPAAAAAACwHyofAAAAAABgP1Q+AAAAAADAfqh8AAAAAACA/Xg1NTXMDpfLJYSIxeJmXKi+vr7ZnWhJu6qK7ST51tTU0J+QTpIvA/kqp13kq5xY5KucdpGvcmKRr3LaRb7KiUW+ymmXicWYDzROJBIRQng8nqo7AgAAAADQCniamprMDq2iaFXUPNJXU1xL2lVVLMXifN3c3PLz8/Pz893c3JiDLM63Uci3rdtFvsqJpZBvW7eLfJUTSyHftm4X+SonlkK+bd0uE4sxHwAAAAAAYD9UPgAAAAAAwH6ofKBxfD6fECIUClXdEQAAAACAVoDKBwAAAAAA2A+VDzQOYz4AAAAAwCaofAAAAAAAgP1Q+cArYdgHAAAAAFgDlQ+8EiofAAAA5Zg2bdqhQ4fo9pUrV4YPH25vbx8REaHaXrVza9euXbBggap70SJBQUF79uxp61YqKiqsrKyKiorauqH2D5UPvAYqHwAAgLY2dOjQvn370u3o6OiBAweePHly5cqVKuxSYGCglZTc3Fx6/Oeffx47dqy9vf3QoUP37dunwh52RIcPH05MTFR1Lzovnqo7AO2XQCBISkpC5QMAANDWJk+ezGwXFxfPnz/f0NCQEFJTU6OqLpWVla1bt87W1pbu9uzZkxBSUlISERExZ84cf3//goKCFStWdO/e3c/P71UX2b17t66u7siRI7lcfNpOCCGnT582NzdXdS86L/wUQlMEAgEhJCkpSdUdAQAAYLPRo0fv2rWroKDAx8enurp65syZVlZWJSUl0ufs3bvX19fX3t7e29s7NjaWECISiWJiYjw8PBwcHIYPH56dnd1a/ZFIJM+fPx8wYEDff2lpaRFCjh071rdv3xkzZpiZmfn4+ERERHz77bdNXMfBwSEzM/Ojjz46fvx4oydcu3bN1ta2srKS7k6YMCEwMJBuV1dX29nZ3bhxgxCSkJAwbNgwR0dHX1/fn376Sf46W7Zs8fPze/bsGSGkrKxMIBA4OTkNHjw4MTGxoaFB5uRFixatWLGC2U1MTAwPD6fbo0ePzsrKmjVrlpOT07Bhw3744Qf5tn755ZegoCBHR8dBgwaFh4fT6lT+1ZH32WefZWdnJycnW1lZRUZG0oOVlZWRkZFOTk5ubm4JCQn04IkTJ6ZOnZqXlxcQEODo6FhfXy8Sib788ks3NzcnJ6f58+c/f/6cnnnjxo2wsLBBgwY5Ozt/+umnFRUV9PidO3cmTJhgb28/cuTIn3/+udH+dEIY84HXEwqFM2bMUHUvABpBhyUzMjJU3REAgFZgY2Nz/Phxe3v75ORkNzc3IjXmc+/evZiYmNTUVEtLy9LS0n/++YcQsn///tzc3J07d+rq6t6+fdvIyEj6ardu3Zo5c6ZME99++21DQ8P06dPlj1tZWTG75eXlIpFo2rRpFRUVRkZG48aNmzp1KpfLffnyZffu3ZnTLC0t4+Pjm8jI1tZ2586dly9f3rJly7Zt2+bPnz948GDpE+zs7LS0tPLz8z09PZ88efLw4UORSPTXX3+Zmprm5+dramra2NjQhoYNG2Zubp6dnb1s2TIvLy8dHR3mIvv379+1a9fu3bv19fUbGhrCw8Pt7e1zcnKePn06a9YsbW1tprBRRExMzOrVq6Oios6ePbt8+XJ9fX1PT0/pE+bPnz99+vSUlJSnT5/eunVLU1OzuLhY/tWRFxcXV15ebmdnN2/ePOZgenp6dHT0559/fv369blz5/L5fHd3d0LIvXv31qxZExERYW5urqamFh0dffPmzYyMDB0dnWXLli1atCglJYUQ0rVr1+Dg4Pfff7+2tlYgEOzYsWPevHkikUggEPTv3z82Nra8vHz16tWKp89uqHygKZjwBu2fUChMSkqi45MAAGxVXV0tFot1dXXfeuutt956ix6sqqqSSCTdunXT19f38PCQCenbt+/Bgwc5HI70wR49ekgkEvmhjB49ekjvvvXWWzt27OjevTuPx8vPz4+LixOJRDNnznR0dPzmm29u3LjRv3//hw8fbtmypa6urqGhoUuXLk103sXFxcXFRSgUxsbGbtu2LS0tjcf7/29Bu3TpMmDAgLy8PE9Pz7Nnz/bv318kEp0/fz4oKCgvL4/P59Mrjxo1ip4fFBQUHR1dUlJibW1NCOFwOOfPn1+3bl1aWlqvXr0IIUKhsKSkJDMzk8fjGRsbT5kyJSsr640qHz8/Pzp/b8KECefPn9+/f7905SORSKqqqng8np6enp6eXp8+fcRicVVVlfyro6ChQ4cOGzaMEPLhhx86OjrevHmTVj5lZWWJiYkDBgwghFRXV2dmZu7cudPCwoIQMm/evODg4GfPnunr67/77rvvvvsuvdQHH3xAlzHIzc199OjR/v37u3Xr1rNnT1qqvVGv2AqVDwB0YHQFQjohE8UPALCYra3trFmzJk6c6OHhERYW5uTkRAgJDg7+9ddffXx8xowZExoaKnMDiZqamrGxcaM32JiYmLy2xUGDBtFYKyur58+f79+/f+bMmV5eXtOnTw8JCeFyuYaGhiNGjLhz54502VNYWDhu3Di6vW/fPuY2obt372ZnZz958mTMmDEyxdigQYNycnIIIWfOnOHz+Q0NDRcuXKCVDy0J6urqtm/ffvLkyefPn3M4HIlEUldXR2PLysoWLFgwbtw4e3t7sWP48SMAACAASURBVFhMCCkqKqqpqaHFA41lqiwF9e7dm9m2tbU9duyY9KMcDicuLm7JkiWHDh0KDQ0dNmwYh8Np9NVpRnM6OjrMKJ+GhgZznT/++KOuri48PJw+dTTTv//+W19f/9q1aykpKXfv3q2vr6+srHRwcCCElJaWmpmZdevWjYYzi2cAKh8A6MD4fD4dmUTxAwCsJxAIAgMDd+3aNX369EmTJi1atEhbWzspKenWrVtpaWnDhw+Pj4/38fFhzm/JbDcZFhYW5eXldHvOnDmzZ8+ura3V0dHZvn27TFTv3r1//PFHQgiHwzEzM5NIJGfPns3IyPjjjz+mTp26dOlSer+QNBcXl7i4uBcvXuTm5goEgrq6urS0tMrKyuvXr0dFRRFC4uPjL1y4sGnTpj59+kgkEjraQ12/fj04OHjv3r3BwcHM0IexsfHu3buZc167uIJIJJLelUgkzHZ9fb18+JAhQ86cOXPgwIG4uLg9e/akpKRoaGjIvzpNN8pQU1Nr9LiWlhZTItIupaam0nUvKH19/bKysmnTps2ePTshIUFDQ2Pz5s3Xrl2j50t3+1VNdEKofACgY2PW4UDxAwCsZ2JisnDhQjc3t7CwsDlz5mhqahJCbG1t4+PjN27cmJKSIl35tGS2m4y7d+8ydQUhhMfj8Xg8kUj0/fffBwcHS5+prq7+3nvvkX/rjcTExDNnzkyfPt3f3/9VYy9WVlZdu3b97rvvDA0NaayOjk5GRkb37t3pYMWlS5c++uijPn36EEIePHggHfvBBx8sXbq0vLz8s88+27NnD4/Hs7CwePLkCYfDMTY2flU6Ghoa0ovmlZaWSj/622+/MduFhYW0SzK0tLQmT54cEBDg7e0tFArpVMNGXx0ZXC6Xjti8kXfeeUddXb20tLR///7MQbFYfO3atYaGhhkzZtBXmXlyevbs+eeff1ZWVurq6hJCiouL37RFtkLlAwpxdHRUdRdUg06meiMSiUTmvxnFOTs7E0IUDJfpm1gs5nA4Li4uzWu6Q0PxAwCsV1xcXFBQ4OTkpK2tffXqVQMDAw0NjQsXLnC5XCsrq7q6urt375qZmUmHtGS224ULF37//XcXF5fu3btfvHgxNTV1/fr19KG//vpLR0entLR08+bNampqU6ZMaeI6kydPlr6bv1EcDofP52dmZvr6+tIjnp6ee/fuZf5HMzExuXXrFr2dZsOGDfL3FK1cuTIgIGDTpk0LFixwcXGxsLCYN2/e4sWLDQwM7t+/X1VVxVyZsra2/vrrr+k6CpcuXTp9+rT0f6lHjhxxd3cfMGDA+fPnz549m5qaKh0rFot37tzp6elpaGh49erV2trat99+u7i4uLCwUObVaTRZMzOzn3/+efLkyV26dGm62pSmo6Mzfvz49evXq6urW1tb//333zdv3pw4caKJiUltbW1hYaG1tXVubu6xY8fofUGDBw/u0aPHF198MWfOnJcvX27cuFHBhliPJ193NqMSJf9W9s2LbUm7qortbPl2Wkpe3aF1m6N/x/l8vrOzM62pXoUFP88RERESiWTLli10TY7IyMgmUmZBvm8E+SqnXVXFIl/ltNvWsRKJRCKRMOcw29L5pqenr1y5ksfj9e3bd9OmTRKJpKamJj4+/uHDh926dXN0dFy6dGlrva8zMDBISUn5+uuva2tr33vvvTVr1vj6+tJLzZ8//8aNG/r6+t7e3mvWrOHxGnkzybRrYGCgSAdcXFyOHj3q7e1N8/Xw8MjMzOTz+TT2P//5z/Lly+l6bhEREU+ePKHPD/OkaWtrr1u3bvr06e7u7nw+f/v27evXrw8PD6+trTU3N589e7ZMHwIDA2/duhUQEKChodG/f/+IiIhffvmF9lkikUybNm3//v1Lly7V09NbtWqVq6urdLhYLL548eLWrVtramreeeedVatW9enT5/79+/KvjvSsOUZYWNjChQt9fX0/+OCD+Ph4DofD4XCkX3cmNfJ/X7vFixd37do1Ojr62bNnBgYGdMkHOzu7iIgImqC9vf0XX3xx6NAhsVjM5XJTUlI+//zzgIAAU1PTxYsX//7779I/YNKvUfN00N9fDjNrs4XoFMk3vYes4+o8+dLVJAkh169f7wz5Uszrm5eX96ax9K9V84Z9aOWjYKx8mSSRSJroMK0E6BcIyIwXsebnecuWLVu2bKHbNF+m/pFOmd4zqoR8x4wZM378+EmTJskcr6iocHFxOXTokKWl5Ztek36tO/Nl6opo3uvbjIbaCdb8PCsI+bIb8lWyV/3dbiMqz1fJVJ4vT3oMVPrThTeFWLbG0tvHaXhH6XMrxjZj8lhL2qVv01slX6Yuoi+fUCikRVFoaCg9TtcGoBsqf55bK3bOnDkuLi5MyoQQphTcunVr0xfk8/mKfC/QG/WZfpjHnMzE0iPSDzXN39//0KFDPB6Py+XSwviNnrTmPc/SFXg7eX0Ri1jEIratY2X+bje73YsXL86ZM0fmTDqy1Op9RqzisZ2lxIRmYyof6FiYIQ7m3TytBJiqQCgUhoSENBFIpObLkWbd8qQSTAFD82UqQOkhso71FVX379/HzakAAB3LoEGD5OscUDlUPgCdBS1dpKsC6bERRtMVAh0p6hBVUBMFW01NTXJyMo/HY6p6gUDQRusiVFRUREZGXrx4UVNTc9y4cfPnz2ceKiwsXL58eVFRkZGR0YIFC/z9/eXDCwoK6N3D9vb2hJCDBw8SQtTU1A4dOpSUlPT48eN+/frFxMTQ5Y/Wrl3bvXt3PT29bdu29e7d+9tvvy0rK1u9enVubq6mpmZQUNCcOXPoncEJCQnHjh179OiRkZHRvHnzhg8fTps7cuRIfHx8WVmZvb39hx9+2BZPCAAAgKqg8gHojKSrIEIIXdyTrr8pX/nI/EtHipjJcgMHDlRy51uIWQKOYmoeelzBOW+KS0tL++KLLz7//PPr16/PnTvX2dmZ+S7w1NTU6OhoU1PTPXv2LFmyxMPDgy4/Ks3Gxuabb74JDg6mN9pxudw///yzvLz8+PHjKSkp6urqq1evXrly5d69e+n5hw8f7tGjR2xsbI8ePRoaGsLDw+3t7X/44YenT5/OnTtXW1ubfpG5paXlsGHDzM3Ns7Ozly1bRu8bvn///sKFC+fPnz9ixIjbt2+vXLmyFZ8HAIAOQX69b2ATVD4A8H/Iz3aTJhQK6eJpTAnk7OzM4XCYW4aU2dU3QvvcRM3TRu36+vrS7yD/8MMPHRwcbt26xVQ+M2bMoF+2HRERkZycXFRUpODXftfX169YsYIuShsWFjZjxgzmoadPn+7bt49WUBcvXiwpKcnMzBSJREZGRlOmTMnKyqKVD10UiBASFBQUHR1dUlJibW2dmZlpbW1Nr2Zqanrt2jWmoAIAAGABVD4A8Aak76KhJRBdQoC5ZYj/L9I+CiHp+5roEYFAIBKJZs2apamp+arxn1ZkYWHBbOvo6Eh/dx7zEI/Hk/lavabp6Ogw38Whq6srEolEIhFdKsfOzo4ZOCoqKqqpqXF3d6frDdbX19Nz6urqtm/ffvLkyefPn3M4HIlEUldXRwgpLS21tbVlWqEz6AAAAFgDlQ8ANAdTAl2+fFkikdCV04T/kj9ZfpuuKUdX0SFvvupAo6uHN7qeAYMpbJR5n4+amtqrHmr2sp5NXFNmvpyxsfHu3btra2sJIRoaGnRJnPj4+AsXLmzatKlPnz4SicTa2pqeLPMlvJ1nlVUAAOgk8B8bALQIXYnb1dWVSN0L1H7WVeNLYQ4mJycnJyfT7bareVpLs7/3zcLC4smTJxwOx9jYmPx7Hxch5NKlSx999FGfPn0IIQ8ePGDONzc3z8/PZ3axoBwAALAMKh8AaDWvmuTWaOVDN+g4QzPmxTU65iM9oNRolPT0tvZf81AmJiYcDicnJ8fT01NbW1vxQBcXFwsLi3nz5s2bN8/AwODRo0dVVVW+vr4mJia3bt0Si8VVVVUbNmygq70RQgIDA9PT09PT0/38/O7du5eZmdk2CQEAAKgGKh8AaHOvWjVBmd9oxizMQAiZNWsWvc+nGe0qn6Gh4dy5c+Pi4mJiYtLT0xUP5PF4O3bsWLdunUAgqKur69mz5+zZswkhS5YsYdZzi4yMLCsro+f37t178+bNX331VWJiYv/+/VetWrV48eI2SQkAAEAVOC9evGB2WvIuRHpV3Del8u9zbUZsp8rXysqKEHL16tVOki/pZK8v6QT5ygz10OXLWJyvDNa/vjKQr3LaRb7KiUW+ymkX+SonVuX5YswHANiMWYOO/N8VDlTdr8aFhYVdv35d+kh4eDhdhxoAAABaCJUPALCW9FBPRkZGe1hlu2lpaWmq7gIAAABrNWfACACg/WPKHoFAUFhY2P7LHgAAAGhTqHwAgIWky54OsYAbAAAAtDXMdgMAtgkJCZG5sQcAAAAAlQ8AsApT9nSIG3sAAABAaVD5AACr8Pl8Pp+PoR4AAACQwSkvL2+VC4lEIkIIj9dZSqlOla+NjQ0h5Pr1650kX9LJXl+CfNkO+bIb8mU35MtuyFfJsMIBAAAAAACwH0/6m1A74nfBIlY5sTS8Y/UZsYhFLGIRi1jEIhaxiGViMeYDAAAAAADsh8oHAAAAAADYD5UPAAAAAACwHyofAAAAAABgP1Q+AAAAAADAfqh8AAAAAACA/VD5AAAAAAAA+6HyAQAAAAAA9kPlAwAAAAAA7IfKBwAAAAAA2A+VDwAAAAAAsB8qHwAAAICO4e+//w4NDbW3tx8yZEhVVZWqu6OQiooKKyure/fuKb/pK1euDB8+3N7ePiIiQvmtK+jUqVOurq50e9q0aYcOHWrGRUaPHr1r165W7Rc7ofIBAAAA6Bi2b9/+4sWLo0ePpqena2trR0VF5ebmtvCa1dXVCxcutLe3Z45UVlba2Njcvn27hVdWuejo6IEDB548eXLlypWq7otChg4d2rdvX1X3gs1Q+QAAAAB0DMXFxYMHDzY1Ne3Vq1d9ff3PP//c8gsGBQWVl5dLH9TV1eXxeHp6ei28uMoVFxf7+PgYGhqampqqui8KmTx5srW1tap7wWaofAAAAADalxs3boSFhQ0aNMjd3X3hwoUVFRV1dXVBQUHnz5/fvn27lZXV3r17/fz8Hjx4EBYWZmVllZ6eTggpKysTCAROTk6DBw9OTExsaGgghJw4cWLq1Kl5eXkBAQGOjo719fXSDV28eDEoKCgyMlKmA3p6etKVj0gkcnJyOnfuHN1dt26dtbX1s2fP6G5QUFBqaiohJCsrKzAwcODAgV5eXgkJCfJ5PX78eMiQId9++y3dPXDggK+vr4ODw8SJEwsKCmROLikpsbKyevToEdMHKyura9euEULWrl2bkJCwdu1aV1dXDw+PL7/8UiQSSccWFBT4+PhUV1fPnDnTysqqpKSEEJKfnz9x4kRHR0dPT89NmzbR56eiosLW1vbhw4czZ850cHAQCoWNdiwgICA5OZm5/sGDBwcPHiwSiUQiUWxsrLu7u5OT0/z5858/f05PGD16dG5ublRU1MCBA7du3SqT2pEjR3x8fBwdHWfMmPHw4UPmODNpTSQSxcTEeHh4ODg4DB8+PDs7Wz7r2NhYmayphISEYcOGOTo6+vr6/vTTT4SQU6dOvf/++zU1Ncw5w4cPpy9ZZ4PKBwAAAKB96dq1a3Bw8KFDh/bs2VNSUrJjxw51dfV9+/YNHjx41qxZhYWFwcHBp06dUldXT0tLKywsnDp1akNDQ3h4uIGBQU5Ozvbt2w8cOJCWlkavdu/evTVr1kRERHz33XdqamrSDU2aNOnjjz+WSCQyHXB1ddXS0mJ2eTzewIEDaVVACDl79qyJicmFCxcIIdXV1QUFBYMGDSKEGBgYLFq06MSJE4mJiRkZGTIz8SorK2fOnOnr6xsaGkoIOXr0aHx8/BdffHH69OkBAwbMmDGjsrJS8acoPT29W7duBw8e3LBhw6FDh7766ivpR21sbI4fP848P7169SotLQ0LC3Nzc8vKyvrqq6+ys7OZ2qyhoWHOnDkeHh7fffedra1tox0bOXJkTk4Oc/2cnBx/f38ej7du3bpff/01PT398OHD5eXlixYtYs6JiYnhcrmpqaljx46V7tv9+/cXLlwYHByck5MzZcoU5mWStn///tzc3J07d548eXLp0qWWlpbyWf/444+JiYnysZaWlgkJCefOnQsNDV22bNnLly89PT01NDROnTpFTygqKvrjjz/8/f0Vf7ZZA5UPAAAAQPvy7rvv+vn5GRkZmZube3t7371797UhQqGwpKRk5cqVxsbGNjY2U6ZMycrKog+VlZWtWrVq2LBhdnZ2Cnbgyy+/lDni6upKK5+SkpInT56MGzeODgFduXJFW1ubztFyc3NzcXHR09N7//33bW1tpbstEokiIyN79+69ePFieiQjI2Pq1Kmurq76+voLFiyoqqp6o8l7b7/9tkAgMDU1dXNzCw8PP3DgQNPnf//99717954zZ07Pnj0HDBiwZMmS3bt3M8MgPj4+ISEh/fv319HRabRjo0aNKioqKi4uJoS8ePEiNzf3o48+qq6uzszMXLZsWZ8+fUxNTefNm3fhwgVmKMzQ0DAqKsrR0dHExES6J5mZmdbW1jNmzDA1NfX29h4zZox8b6uqqiQSSbdu3Xr06OHh4dGvXz/5rGfOnHnw4EH52FGjRtnY2HTr1i0oKKi2trakpITH4/n7+zOV27Fjx+zt7c3MzBR/tlmDJxaLZQ7JH1EEl8ttdmxL2lVVbGfLlxDC5XI7XJ+bHdvZXl/kq5x2VRWLfJXTrqpika9y2lVy7PXr11NSUn777bf6+vrKykoHBwcmXCKRSF+K2b1z505NTY27uzs9XldXx+Px6AkaGhqOjo5NdICO+TT9npDP5yckJFRWVp46dWrgwIHu7u67du0SiURCoZDP59OTs7Oz9+7d+9dffxFCnj596unpKRaL6UU2btyYn59/5swZ5rJ37twpLCxkRjzq6uoeP34s/frSf5kEpXclEsm7777LdM/Gxub58+cVFRVdu3aVyYIJLyoqsrOzYx61s7Orrq4uKSkxNjYmhNDV1ZromLGxsZOT0+HDhyMiIo4ePWpmZmZra1tYWFhXV/fJJ59wOBwm/MmTJ3p6ehKJxNXVtdHnvKSkxMbGhj7E5XLpkgZMdrTD48eP/+WXX3x8fEaPHj116lRzc3P6qHzW//zzT9euXZnAurq61NTUkydPlpeXczgciURSW1srFotHjRo1bdq0Fy9e6OrqHj16lA5DdcLfX16zgwEAAACg1ZWVlYWFhc2aNSshIYHL5W7duvXmzZuKBBobG0svbUzfjhNCtLS0mO1ms7Ky0tHRuXr16tmzZ319fe3s7CQSya1bt4RC4fDhwwkhp0+fXrlyZVJSkqura5cuXUJCQqTDa2trLS0t4+LiYmJimINz58718fFhdrt27dpEB+htOQzpGXr05iX6rvpV1NXVpe+KoWuCq6ur011tbW3pkxvt2KhRo7777ruIiIgjR46MHDmS6UNKSoqhoSHzDBsYGNANXV3dRnsikUikXw5aoMrQ1tbevHnzrVu3vvnmm5EjR8bFxQ0dOlSRrBMSEi5cuLBp06bevXtLJBJbW1t63NHR0cjI6NSpU46Ojr///nvnnOpGCOFJP19M9dmMCyGW3bE0vGP1GbGIRSxiEYvYjhh7/fr1hoaGmTNncjicmpqaBw8eSIdzOBxmm8vlSiQSumtpafnkyRMul0sHMZh26ZvspluXP0e+z1wul8/n//LLL/n5+evWrePxeO7u7mfOnLlx40Z0dDSXy7106ZKzs7OHhweN/fPPP2lX6UWWLVsmkUjGjh3r7e3t5+dHCLGwsLh3757Mqmt0+hkN0dTUJITU1dXR3dLSUiZ9Dofz+++/M90rKioyNDTU0dGRz5R5uvr27XvmzBnpEE1NTXNz8+rqaplnoNGOEUL8/f1jYmKuXLly+fLlqKgoLpf77rvvqqurP3jwoH///vLtSr9S0nr27Jmfn8+MftAZdHRXJqp///4JCQkbN27cvn27r69vo1nTqowJvHz58ujRoy0sLGSeMUJIQEDAyZMn//nnn4EDBxoZGck/VwrqKL9HjcbiPh8AAACAdsTU1LS2trawsJAQcunSpZMnT77qTDMzs+PHj5eXl//zzz8uLi4WFhbz5s27evVqaWnphQsXjh8/3rodc3V1PXToUJ8+feiNK15eXgcOHNDT0+vTpw/tdnFxcWVlpVgs3rZtW1lZmUx4nz59Fi5cuGrVqsePHxNCpk2b9v333+/cubO0tPTOnTsZGRkyKxwYGRn16NHj4MGDEomkqqoqKSlJ+tG//vpr06ZNT548+eWXX1JTU8eNG9d05ydOnPjHH38kJyc/efLk2rVrCQkJoaGhjY63vKpj3bt39/DwWL9+vY2NTa9evQghOjo648ePX79+/cmTJ//8889r164p8nWigYGBN27cSE9Pf/To0aVLlxq9Q+nChQu5ubnPnj179OjR3bt3mXtypLPesWOHzNoJhBATE5Nbt26JxeLKysoNGzZ06dKFeSggIODixYtnzpyhY3SdEyofAOjYkpKSZOZUAAB0aHZ2dpGRkREREV5eXvv27WviWziXLFmSm5vr5eWVnZ3N4/F27NhhZmYWHh4+atSo9evXyyxg3XKurq5//fWXt7c33fXw8CgrK3NxcaG7EydO7N+/v7+/v4+Pz8uXL+kCbjI+/vhjW1vbpUuXSiQSPz+/devWZWZmDh8+fNq0aZcvX5b5RJ7L5cbFxZ04ccLZ2XncuHFDhgyRXirAz8+vvLx81KhRERERw4YNEwgETXdeX19/165dubm5/v7+n3322ciRI18V0kTHRo0adePGjYCAAObkpUuXjhs3bs2aNcOGDZs3bx4t6prWu3fvzZs3f//99/7+/qmpqUuXLpU/p7a2Njo6esiQIUFBQVwud9myZfJZ+/n5yS9HvmTJkidPnnh5eQUGBvr5+UmvafHOO++89957eXl5dMytc+K8ePGC2WnJKBIdnaTjkm9K5SNfzYjtVPlaWVkRQq5evdpJ8iWd7PUlHTzfpKSkpKQkgUDw2v/2GB0632bEIl/ltIt8lROLfJXTbjvPd+3atY8fP964cWNrtdvO86Vksm5Gu2vXrr13715qamqHyLcV28VsNwBgCbqmEK1/VN0XAACAdqqhoeHkyZPSA1adECofAOjY+Hw+He1B8QMAACCvpqbm2bNnmzdvbmho6Mw3+RBUPgDAAsxUt6SkJOYrxgEAAIAQcv78eU9Pz+PHj2/evLnRRR06j06dPACwBlP5hISEZGRk0ClwAADASswd/51Ks7P28fFR8CuhWA9jPgDAEszIT0hICEZ+AAAAQAYqHwBgD4FAQEd7UPwAAACADFQ+AMAqzFS3kJAQLHgAAAAADFQ+AMA2GRkZ7F7t7cSJE66urkpoaO3atfPmzVNCQwAAAEqAygcAWEh6tbeQkBBVd6cVjBgxQiQSqboXAAAAHRgqHwBgJ4FAkJGRQQgRCoVWVlYd+raf+/fvFxcXq7oXAAAAHRsqHwBgLT6fX1hYqITbfkaPHv3TTz+Fh4c7OjoOHTr02LFjP//886hRoxwdHYODg3///Xd62pgxY3Jycl57moyCgoIxY8YQQuzt7a2srG7fvk0IUVNTO3TokI+Pj729/fjx44uKipie5ObmRkVFDRw4cOvWrYSQq1evTpkyhc/nDxs2LDs7m7lsQkLCsGHDHB0dfX19f/rpJ3pQIpFs3LjRzc3N2dn5P//5T0NDQxs9YwAAAMqHygcAWE76tp+2W/MtOjp6woQJ2dnZXl5eS5YsiYuLW716dVZWlpaW1rp165jT1qxZo8hp0mxsbL755htCyPXr1wsLC62trQkh5eXlx48fT0lJycnJeeutt1auXMmcHxMTw+VyU1NTx44d+/Dhw7CwsNGjRx85cmTu3LlLliy5cuUKPc3S0jIhIeHcuXOhoaHLli17+fIlIeTAgQMZGRlr1qz58ccfbWxs9u3b1xbPFQAAgErgm0wB4PXkqwXmiEQiIYRwOJxmXLYlsQMHDuRwOIrE8vl8uto1LXtCQkJmzJhBa6FW5Ovr+8EHHxBCwsPDd+3aNW3aNCcnJ0LI5MmTv/jiC+Y0Hx8fRU57rfr6+hUrVpiYmBBCwsLCZsyYwTxkaGgYFRVFtzdu3Ojk5BQYGEgI8ff3379/f3Z29vvvv08IGTVqFD0nKCgoOjq6pKTE2tp6z549wcHBtIehoaFHjhxpyXMCAADQrqDyAYD/EQqFtKRhNlgpNTVVU1OzdYuf9957j27o6elJ7+ro6FRWVr7paa+lo6NDyx5CiK6urkgkEolEPB6PEDJo0CDmtKKiory8PC8vL0IIh8OpqqrS0tIihNTV1W3fvv3kyZPPnz/ncDgSiaSuro4QUlpaGhoayoT369fv+fPnivcKAACgPePV1NQwO1wulxAiFoubcaH6+vpmd6Il7aoqtrPlS1qQckfMtzO8vvn5+fn5+XQ7NzeX2W4UHZdo9EiXLl0IIc27IaQlsfn5+V26dFEkttHUqqurpf/6Ka7R55nu0gvW1tYSQhoaGugurSiYtrhcriKnyaAni0Qi2lBdXR2P97+/3vTRmpoaHo8nFos1NDSYh0Qi0ZAhQ+bMmUMIoXURfTQ2NjY3Nzc+Pr53794SieT999+vra2tqakRi8UikYgJp0UR026rPFdKiO0Mv7/SkK9y2kW+yolFvsppt9PmizEfANZiBm2YDVoDNFHk8Pl8uh6Ak5OTfLXTqI7ylzcsLCw/P5/P56ekpLTkL69K0GTp5MA3YmFhcfr0aUNDQw6Ho6amxhwXCoWjRo3q3bs3IeTPP/9kjpubmxcVFfn5+dHdP/74o2vXri3tPQAAQPvA09TUZHboewj6X2zzs8xDiQAAIABJREFUSF9NcS1pV1WxVKfKNzIykt4socx2VRUrFAp5PB79jJzI3eXS9DQwiURCbz5RZLaYzPPJxL6pZsxMY4oc8m+dw+Kf56SkJFrvCQQCJs1WzJfL5aqpqdEL0ldQQ0OD7qqrq0u31aVLF0VOk/HOO+9wOJxjx455e3tramqqq6tzOBzmZA0NDRrL4/Gke0IImThx4n//+98NGzZMmDBBV1e3oKDgnXfesbOze/vtt+/cuaOurl5VVZWYmNilSxfakwkTJsTGxrq4uPTt2/fcuXNXr1719PSkl22t50oJsRSLf54bhXzbul3kq5xYCvm2dbudNl+M+YCi6K3h5N836/QeiWYUQiohP/rRxLYytWm7zKsjsyH/qjVv3ldHkZSURNezzsjI6Cg/sTIMDQ0//fTTuLi4mJiY9PR0xQPNzc3T09M3bNjw8ccf83g8S0tLuvjBkiVLli1b5uXlpaOjExkZWVZWRs8PDAx89uxZVFRUZWXlBx98MH/+/F9//bVNUgIAAFA6zosXL5idltRS9J1T56lZO1W+VlZWhJCUlJTU1FT5d+r8f5FXFEJt2ucmSpqWFBV8Pp+5X5zI5dX0u2eJRCKRSLhcriJvsmU6ycQ2o8P4eW4UU7ELBAJmSQMW59so5KucdpGvcmKRr3LaRb7KiUW+ymkXYz7wxvh8vqenJ/n3zTr9EF34L+nTpDfoO3Jm9eFXFQOvqlLEYnFeXh4zAazZJY386EcT20SJv5ky7bZ8BBlkyJc97VxYWNj169elj4SHh4eHh6uqPwAAAKyBygfeGH2znpGRQaRKEfmlkJUzf6yJkkYikTg7O6OK6MyY+ZkdpewhhKSlpam6CwAAAOyEygdaRH6Sm0zlQ/997U3/TUwMc3Z2ZsZ8Gq1zXqXZ63cDOyQlJdGfN1qlAwAAQCeHygdamXxxotr1Q6DTYlY1UHVHAAAAoF3AG0p4PVrDNP1NlwDtCi17pFfuBgAAgE4OlQ8AsBCd59aBbu8BAACAtobKBwDYhq60gQEfAAAAkIbKBwAAAAAA2A+VDwAAAAAAsB8qHwAAAAAAYD9UPgAAAAAAwH6ofAAAAAAAgP1Q+QAA29Av88GS1gAAACANlQ8AsApd0pr8+w28AAAAABQqHwBgFQz4AAAAQKN4YrFY5pD8EUVwudxmx7akXVXFdrZ8CSFcLrfD9bnZsZ3t9WVNvnl5eXTAJyIioonLsiZfBSFf5bSrqljkq5x2VRWLfJXTrqpika9y2mViMeYDr+fs7EwIycvLU3VHAF4DAz4AAADwKjxae1G0ipI+ojjEsjiWw+HQfztQnxHbOWNdXFxcXFxeW/m0qz4jFrGIRSxiEYtY5cTymhEMANA+YbQHAAAAXgWz3QAAAAAAgP1Q+QAAAAAAAPuh8gEAAAAAAPZD5QMAAAAAAOyHygcAAAAAANgPlQ8AAAAAALAfKh8AAAAAAGA/VD4AAAAAAMB+qHwAAAAAAID9UPkAAAAAAAD7ofKB1+Pz+YQQoVCo6o4AAAAAADQTKh8AAAAAAGA/VD4AAAAAAMB+qHwAAAAAAID9UPkAAAAAAAD7ofIBAAAAAAD244nFYplD8kcUweVymx3bknZVFdup8pVIJPTfDtTnFsZ2qteXIF9ltauqWOSrnHZVFYt8ldOuqmKRr3LaVVUs8lVOu0wsxnzg9Wjlw+FwVN0RAAAAAIBm4tHai6JVlPQRxSGWxbFMSAfqM2IRi1jEIhaxiEUsYhErHYsxHwAAAAAAYD9UPgAAAAAAwH6ofAAAAAAAgP1Q+cDr8fl8QohQKFR1RwAAAAAAmgmVDwAAAAAAsB8qHwAAYL+KigorK6uioqK2bujEiROurq5t3QoAADQDKh8AAGAnf39/kUik6l4AAEB7wVN1BwAAoL1LSkpitplb/ugdgMy29G57cP/+/eLiYlX3AgAA2hFUPgAA0BShUChd+UgflznC5/MFAkHrlkB79+7dsWPHo0eP9PX1R4wYsWjRIpFItGHDhiNHjrx48cLMzCwiImLkyJEyUbdv354+fTohxM7OjhBy8OBBc3NzQkhhYeHy5cuLioqMjIwWLFjg7+9PCFm7dm337t319PS2bdv23nvvffPNN2VlZatXr87NzdXS0ho/fvycOXO6dOlCCMnKykpPT793756Ojs6YMWMWLFhAmzty5Eh8fHxZWVn//v2HDh3aiukDAEArQuUDChEIBC2cNPKqpeHa2+fEACCD/vJK/6rK/Dozyz/SGikjI6O1mr53715MTExqaqqlpWVpaek///xDCNm/f39ubu7OnTt1dXVv375tZGQkH2htbf3NN98EBwffvHmTx+MRQioqKgghqamp0dHRpqame/bsWbJkiYeHh66uLiHk8OHDPXr0iI2NNTAwaGhoCA8Pt7e3z8nJefr06axZs7S1tcPDwwkhBgYGixYt6tev371798LCwlxdXd3c3O7fv79w4cL58+cPHz789u3bq1ataq30AQCgdaHyAYWIRKLk5OTk5GRVd6RxjZZPEomEw+E0L9ze3p7H49E3TK9tCIDdBALBp59+Kn2EVj5JSUl0QygU0tGeRoeGWqK6ulosFuvq6r711ltvvfUWPVhVVSWRSLp166avr+/h4fFGF5wxY4aDgwMhJCIiIjk5uaioyMnJiRDy9OnTffv26erqisXiS5culZSUZGZm8ng8Y2PjKVOmZGVl0crHzc2NXsfJycnW1vbu3btubm6ZmZnW1tYzZswQi8UmJiaBgYF79+5tzWcBAABaCSofUEjLa55X1Qyt8jVBLbxIs8NlkqK7EomEz+czRReKJWAf+lNNx3aSkpJoCSQ/NNRytra2s2bNmjhxooeHR1hYGK1SgoODf/31Vx8fnzFjxoSGhtJpbAqysLCgGzweT0NDo6amhu7a2dnRwR9CSFFRUU1Njbu7O92tq6tjPgTJysrau3fvw4cPCSFPnz718vIihJSWltra2jJN9O3btyUpAwBA20HlA2+gsLCwGVFisZgQwuU2ZyFBBWMbLV0kEolEIlGkXflwoVAoEonkx3xkznzV7pYtW2QCZe4Flz6C0gg6NIFAQKSWQKBVUCtOeBMIBIGBgbt27Zo+ffqkSZMWLVqkra2dlJR069attLS04cOHx8fH+/j4KHg1+V9qiil7KGNj4927dzO79M/IqVOnVq5cuWXLFldX1y5dunz88cf0UZnh5Vc1AQAAKoc/0MAGjRYPildc8uH0k2BNTc2mAxutfCQSiVAoZN4JMdOBXhUl3QFnZ2c6XoRyCDoKOuZDCKFrG4SEhAiFwpCQkFYsfkxMTBYuXOjm5hYWFjZnzhz6i2lraxsfH79x48aUlJRGKx/6u0//DryRPn36PHnyhMPhGBsbSx+/ePHiwIEDBw8eTHcfPHhAN8zNzfPz85nTsKAcAEC7hcoHoPkane0mFosjIyNlKi75ykf+X7rBjBfRq9EP1FEIsY/0iy5/kLxuEuYb/UgwA5jyUa+d6vna++WkE5HeTkpKioiIULyTjSouLi4oKHByctLW1r569aqBgYGGhsaFCxe4XK6VlVVdXd3du3fNzMwajTUxMeFwOD/99JOXl9drP8WQ5uLiYmFhMW/evMWLFxsYGNy/f7+qqsrX19fU1PTUqVOVlZXa2topKSllZWX0/MDAwPT09PT0dF9f399//z0zM7OFWQMAQBtB5QOgDPKz3aQx7xcvX75Mx4uYN5EhISHSUSiEOhaZyvby5cv0xW2tKysnqnkXb5WfUi6Xm5GRsXLlSh6P169fv82bN3M4nNra2ri4uIcPH3bv3t3R0XHZsmWNxhoaGs6dOzc2NnbNmjXp6em9evVSsFEej7djx45169aFh4fX1dWZm5vPnj2bEDLx/7V3NzFuXeX/wI+nFgRadYcEC0QVIRTaCtohdkvFJpuiQBqqskC/BdMwjaIwmUVEedmgClqEVNQqlfBEIUIlHQFSRV4ECyohYIFopHqiUWGBIiGxreiGUWBhVMf+L45yuX+/jcdjX9vHn88ish0/PvcZz9j++px77//931//+tejR4+Wy+Vjx46dOHEi3v/gwYM//vGPz50798orrzz44IPPPffcd77znf33DsDYlW7dupVd2c/+GEOuDuqpgP1Axl67aP0eOnQozPB+PmOvnYXnt35H6POBteOTZaVSCSEMeTi7DvGQ5dn+CT2H6/ehuVKp9Bu032ff7PZWq1UqlQZvc78Hme7ze+PGjeyWnoseh8kYHXt8DbgcevU7fIxpNpvNZjP22/M8pAMM2F8u7tITj+rWc7MX+e+3yFr9FjOufoup1W8x4y5sv6WdnZ0R6rt1fHJK3qL1e//994cQ/va3v017Qwoyg89v/MAa18JtbW1Ne3PmQ78P9z0PX9Ft/zMkMY7Gf0OvqFOMCf0+x5eFS5cuTX0ScmNj47XXXsvf8vDDD//kJz+Z1vYUbAZfryZKv2nTb9qm3q/kM6JF6/fpp5/e2tp67bXXss9waZuL57cj/8SP6WOZ8+n5LPd76geM2y+h5RPF8LuRzJQBkzMdaWcWTOL3uV6vnzhxolqtXrp0aYwPOxZz8fc7RvpNm37Tpt+ClfNzRvM4a6a2mNr42bRUKo1QPo/9zkXtI488kr8aP2oXP/scP/f3HLdjC7tN+mfVLzXlV38NsM9jBqZdm90y4GFnbZvVqlWrVu2C1y5KxAQWUL9VWPtJegDAnBolNgGw4GKqnM21iADQkzkfAEaRP6QbAMw+yQeAUUg+AMwXq90AAID0ST4AAED6JB8AACB9kg8AAJA+yQcAAEif5AMAAKRP8gEAANIn+TAU52sHAGCuST4AAED6JB8AYPosKwAmrTztDQAAFt3KykqWfOL66vX19ewywFhIPgDAlOUnfOLllZWVkEtBIhCwf1a7AQBTdvPmzXy2yaJOvV6v1+srKyuHDh3KzwsBjKDcaDSyK0tLSyGEVqs1wgO99957I2/EfsadVu2i9dtsNuO/+V+YAsb1/BZTq99ixtVvMbX6LWbcsddevHixXq+fOnUqhFCr1arV6quvvhrffS5cuLC9vR0jUAihWq2ePn16eXl56ttcQG0yz++Q9FvMuAvbrzkfAGAmVKvVt99++/Tp0yGEer2+urq6vb0dI9Dbb7/96quvZhNBq6urDz300OrqqlkgYHilW7duZVdiioqpaK/iVMCBAwdGqN3PuNOqXbR+a7VarVZbX1+Pu5wWNq7nt5ha/RYzrn6LqdVvMeNOtLZer9dqtSzV5N99Go1GvV7/6U9/ms881Wp1mH2BZrbfAZJ8fgfQbzHjLmy/5nwAgNlSrVY3Nzc3NzdjmKnVavn9fOL/3rx5M7tDXAhnRyBgMMkHAJhFHfknxpu4BG7AHeQfoB/JBwCYXR3xZnt7e3V1teP8P/IPMAzJZxS1Wi1+5+RVFQAKsGu8yZbAxT2C4h1qtdo0NxqYMZLPKOr1evadk2+VAKAY1Wr14sWLFy9ezMebjjfi9fX1jh2E5B8gcmy3EWuvX79eq9WypcZh6APL7HNcx3YrpnbRfp/1W8y4+h1j7YCvnBqNRrlcLpfL/e4w4IV6ZvsdIMnnd4B8v/G9Kd7e/S6cP0Bc/N/Dhw9PZZs9v8PTbzHjLmy/ks9+++048mYYIgLNY7/Xr19fXV2NawmKHHfqz2/B4+q3mFr9FjPunmrjq2j2Wtput7e2trrvMEUdr+r5q/Fyq9UqlUqPPPLICA+e/PM7xtrufrsTTr/8s7a2tr6+Pu/9FjOufoup1W8x40o++60d/Mob9YtA89iv5FPMuPotpla/xYzbr7Zer2cvlfnLezJ4gr3ZbA6Y8yksRGUbGS90XM1L6fmddG2/frtPAVStVrMfdTY7NPwCjTFus+d3ePotZtyF7VfyGf8rbwhhcASax34ln2LG1W8xtfotZtxYe+PGjWw+Z0Dk6MgG7Xa7Uqnkxx3+o+qE+u3Y+Hx4y27snqoaIGu5Wq3uZ77I73NeR/7Jv//m/2uExduz2e/kxtVvMbX6LWZcyWe/tbv2OyACzeM6Y8mnmHH1W0ytfic9bvxy/a233uoZA/LfxOcv73/caHae34501DMsdej+yewa+Wan32Jqh+m3X/5ptVq1Wu38+fNh75M/s9zvJMbVbzG1+i1mXMlnv7XD9zsgAoW9fIsZST7F1Pp9LmZc/RZTW0C/2XxO90G08p/gi/mUOS/Pb8dU2ID5osFxaF76HVftnvqNb77Z+2+lUllfXy+VSiNM/hTZ73/+858vfOELm5ub9913n+e3mHH1W0zt1PuVfIrrdywRSPIpptbvczHj6reY2kn0m32a7LmGLb6sVSqVjhVr+x93GHP9/Hb/VPtNEGXvGidPniyXy4899ti0trng2tHef7ungAYcFGH/2/ytb33rt7/97XPPPfeVr3wlX3vq1Kk//elPL7/88he/+MXszj/60Y9ef/31P//5zx/4wAfiLbdv3z537tzp06fvueeeX/7yl88///yLL774pS99Kf/4H/7wh5999tkxbvOM1M713+8ItfotZtystu8OoIxdfFXd3NxstVr1ev38+fPxvW1lZSX739F2uwQoQD2n47+yuYj81+fxnYY96bnCLb9YbnA0qt7R/SCLLH5tl+Wf7J03ildHO23D4EGvXLkSk0/07rvv1uv1D33oQ/m7NZvNX//61/fee+8bb7zx1FNPxRvvuuuub37zm9l9PvjBD7744otHjhy59957x7iFsIAkn+moVquPPvpoyH0RFd+6VlZWRCBgpmxsbMTVQR23Z/PVXqwmbUAcCiHUarVmsxnPL9eRSzvWGS74M1WtVi9duhRCuHHjRsf6i3BnoeYYw8/DDz/8q1/96h//+MfBgwfjLdeuXTty5Mhf/vKX/N3+8Ic/vO997/vqV796+fLlLPn8+9//rlQqv/nNbz7xiU+EEJaXl//73/++/PLL3//+98e1ebCYJJ8py9aPxQgU7ryZZRNBIhBQvPhy1C/tjPercUaTvTVcvHgx3Dm/XOi1ELHnHF28UKlUQgilUmnA2YrSk3/nzU/+jDf8tNvto0ePXrt2LVuTdu3ate9+97s3btzI3+3y5ctHjx49evToSy+9lI9JeY1G4wc/+MGTTz751FNPffrTnx7L5sFiknxmRc8IlF8LF1+L43HhAMau32K2M2fOlEolaWf2dU/s9ItAwxxlruNhu6+22+0QQr8jcU83O/U7BHnc5uxIEtnt8UvGlZWVMYafdrt9/PjxtbW1s2fPlkql7e3tRqPx2GOPxW2I3nnnnTfffPPZZ5/9yEc+cvjw4cuXL3/729/ufqjbt2/fd999X//617/3ve9dvnz5rrvu2v/mwWKSfGZOPgKF3HFpYgSqVCrZR5C0v5MDitFzeifbXWQ/R+Fn6votcss+8b/11lshhFKp1C8qhP4pItrY2Bhhw+J72QiFIYRsad9YxN/z+K66ubkZw8+4cv6DDz549913v/nmm5/73OeuXLny5JNPdvwpXbly5eMf//ihQ4dCCE888cQrr7zyjW98o/skvDEsPfPMM2+88cbPf/7zp59+eiybBwuo3L0H6mj7pMY/5v3szzpftQX0Gz9wXLp0Kb7NxHeX+E1V/qAIZ86cCXdWLIxl3J7iy2673R65Zc/vLNfqt5hxp1Xb3W88n0lH2omHYgu9vvCe936LGXdatSP0my0fyC6sra31u/Pg5NPzSNy7ns51+PO9jqbjPbHjav4o4fFC/OllP40BP8whf87tdju+Yx47duzq1auf+cxnfve73129ejWWx/9qtVpXr1595513HnjggVh1+/bt3//+948//nj+bjEitlqtpaWlF154YXV19fOf/3ypVBr+HTn53+exjDutWv0WM25Wa85nDuS/tItvOdlx4ULuTSi+slcqlUnsyRrn1kf+ig6Yru3t7ezVo+O/Ys4Z8MGXBTeJXYDib+No7ynNZrNSqXRPjMymY8eOHT9+/PXXX7///vs/+tGP5v/r+vXr77777i9+8Yu777473vLSSy9duXLl8ccf7/doDzzwwJe//OUf/vCHDvIGoynnJ17n8bjgi1Yb33Ky48KFO9/a1uv1+BXa1tZW/pNN/sA+8aujfmuyB3vooYfiKCNs9jz+nNWqTaA2v8dgx39Vc8Y+rlq1u4q/eCOfDyROgIxQO3ibs7+UnnfYU7+lUqlUKi0tLX3sYx/75Cc/ee7cuRdeeCGrjf8VQ87y8nJWtbq6+swzz/zzn/+85557srvFNRdZ7dmzZ5944on3v//9R44c2XVj5vF3Q63aidbOx1cm9JSdIChe7bkn6+AD+3TMDtlxCOZa9ufffUy25eXleKZLB6GGfrITm473YY8fP/73v/+9YybnX//61x//+Mef/exn+Rs/+9nPHjx48OrVq/kjznU4cODA888//7Wvfe3IkSPj3U5YBKVbt25lV+b6nKwF185Fv/mj98TL7XZ719XVHUEo/ttoNE6dOhVCuHnz5kS3eUZq5+L5HWOtfosZd+y1WcLpObGTHQrlU5/6VEii3yEl8/wOSb9jGbdWq8U/qM3NzZ7hJ7F+Z7ZWv8WMu7D9mvNJWUeGyZ71juOZDr7aIR6CJv+u0L1bkW+UYezq9XqpVIrfXPTMOSE3n9NxiIL4TgP0k8Ue59CDtEk+i2jw8rZhgtCAA552D9Rut6vVatyT1co6GEb3ySh7yqKONWwwsnzscd4qSJvkQ6ee4aTRaMSDHMTVbt3Jp2cWyi4MXmLX78BB2VEZus8vDsnouW9eT5VKJR6hRM6BcRF7YKFIPoxiyLVt2c5FcaFOGGIGqfvq4NEHbM9+jmUHY1ev11ut1tbWVnbWyCEnc8KdbwGCM4rC+GSnCA/99+0BEiP5MKyTJ0/udY+0bP+iSqUy4BPb4HV07Xa74/zi3Z8Xdw1LPTdswI3NZjOEEI+FNWQ5RN3LRAf/fnaHnMlvIyy6bKqnWq1mh0gFkufYbvodykz1Ozj55C8Pcyy7Mcr2a9r19Hz51Ur5T7qe32Jqx9JvPtLsOocT7jzRlUol2+dtTyFn6v3OUa1+ixl3fvs9ceJE/Gvd0wq3+e130Z5f/c5y7dT7NefD/Bm82i3T7y+k38fT/O1xzmd7e3vXew5z+zD3zB8NIluh5+v/qdvrBE7odZqs/ArMYMUaTM/GxsbGxka8bMceWECSDwunX5zoOKJD2Pt3EtnyvHa7PfjT7YDpgq2treyNuWPDnHl2EvodomOYhNPvqQFmUK1Wi6+uMg8sLMkHxqbjvEm73jMvfzSIbIXeMGdYCv//fFHHcfB8Fg+9fozNZrPfhF6H7rR5+PDhYN4G5kq2V08I4cyZM2IPLCzJB2bCgKNB9Ms/wx89fMCZZxOIRiNP2kT9TsXb7ycTky0wF/KZZ319fW1tbbrbA0yX5AOzbteVVB1HDx8QjcJuE0fdV/vdPmn9Zrp2nQHr1h32ms3m8vLyaHtYAvMifwC3arW6vr7umwtYcJIPzL1djx4+zHzRXs+q1L0BI+g+ZPkI9jppE+7sxwWkqmOqx/I2IJJ8IH27rm1rNBr1ej0/B7KnRLTP6NLTrpNO9rcBespij8wDdJB8gBBCqFar+eQz/DROq9Wq1+ujJZB4HLxHH310hFqrVoAOpnqAwSQfYL+q1ep+ziwGsE8yDzCM0s7OzlgeKJ75sVxelCil37TpN236TZt+09bR79bW1tbWVow9a2tr+RNtpWHBn9/k6bdgi/KDBgASU6vVzp8/Hy87aDWwq3J+jcowZ2DsR61atWrVqlWrtpja8+fPj7C8bX77VatW7VhqzfkAAHPjwoULFy5ciJft0gPsieQDAMyBOMkTY092ctJpbxQwTyQfAGCmxcyTLW87ffr02bNnp7pFwFySfACA2dVxxOqTJ09Od3uA+SX5AACzqOdZehqNxlQ3Cphjkg8AMEM61rY5jAEwLpIPADBN9Xq9Xq/nL0QyDzBekg8AMB359WwZx20DJkTyAQCmqVqtZv8KPMDkSD4AwHRYzwYUaWnaGwAAADBxkg8AAJA+yQcAAEif5AMAAKRP8gEAANIn+QAAAOmTfAAAgPSVdnZ2xvJAzWYzhFAuL8oJgvSbNv2mTb9p02/a9Js2/aZt6v2a8wEAANJXXlr6X/hptVohhPwtw1OrVq1atWrVqlWrVq3ama015wMAAKRP8gEAANIn+QAAAOmTfAAAgPRJPgAAQPokHwAAIH2SDwAAkD7JBwAASJ/kAwAApE/yAQAA0if5AAAA6ZN8AACA9Ek+AABA+iQfAAAgfZIPAACQPskHAABIn+QDAACkr9xoNLIrS0tLIYRWqzXCA7333nsjb8R+xp1WrX6LGVe/xdTqt5hx9VtMrX6LGVe/xdTqt5hx9VtM7dT7NecDAACkr3zgwIHsSkxRMRWNJv9ow9vPuNOqjfQ76XH1W0xtpN9Jj6vfYmoj/U56XP0WUxvpd9Lj6reY2miK/ZrzAQAA0if5AAAA6ZN8AACA9Ek+AABA+iQfAAAgfZIPAACQPskHAABIn+QDAACkT/IBAADSJ/kAAADpk3wAAID0ST4AAED6JB8AACB9kg8AAJA+yQcAAEif5AMAAKRP8gEAANJX2tnZGcsDNZvNEEK5XB7Lo80+/aZNv2nTb9r0mzb9pk2/aZt6v+Z8AACA9JWXlv4XflqtVgghf8vw1KpVq1atWrVq1apVq3Zma835AAAA6ZN8AACA9Ek+AABA+iQfAAAgfZIPAACQPskHAABIn+QDAACkT/IBAADSJ/kAAADpk3wAAID0ST4AAED6JB8AACB9kg8AAJA+yQcAAEif5AMAAKRP8gEAANIn+QAAAOkr7ezsjOWBms1mCKFcLo/l0WafftOm37TpN236TZt+06bftE29X3M+AABA+spLS/8LP61WK4SQv2V4atWqVatWrVq1atWqVTuzteasM4wnAAAAUklEQVR8AACA9Ek+AABA+iQfAAAgfZIPAACQPskHAABIn+QDAACkT/IBAADSJ/kAAADpk3wAAID0ST4AAED6JB8AACB9kg8AAJA+yQcAAEjf/wNYFIMEbvYPLAAAAABJRU5ErkJggg==;" vertex="1" parent="WIyWlLk6GJQsqaUBKTNV-1">
          <mxGeometry x="80" y="710" width="707.41" height="256.26" as="geometry" />
        </mxCell>
        <mxCell id="vSL9ewm9AfMCym9DL8Tn-25" value="THREADS _ VIEW&amp;nbsp;" style="text;html=1;align=center;verticalAlign=middle;resizable=0;points=[];autosize=1;strokeColor=none;fillColor=none;" vertex="1" parent="WIyWlLk6GJQsqaUBKTNV-1">
          <mxGeometry x="65" y="628" width="130" height="30" as="geometry" />
        </mxCell>
        <mxCell id="vSL9ewm9AfMCym9DL8Tn-26" value="I SHOULD NOT USE THE MUTEX, NO SHARED MEMORY ACCESSED AT SAME TIME" style="text;html=1;align=center;verticalAlign=middle;resizable=0;points=[];autosize=1;strokeColor=none;fillColor=none;" vertex="1" parent="WIyWlLk6GJQsqaUBKTNV-1">
          <mxGeometry x="80" y="1000" width="500" height="30" as="geometry" />
        </mxCell>
      </root>
    </mxGraphModel>
  </diagram>
</mxfile>
